<svg xmlns="http://www.w3.org/2000/svg" width="814.803" height="331.994" viewBox="0 0 814.803 331.994">
  <g id="Group_2" data-name="Group 2" transform="translate(-534 -214.006)">
    <path id="_ionicons_svg_ios-person" d="M275.48,261.665c-3.967-16.793-26.614-24.979-34.438-27.619-8.6-2.9-20.828-3.591-28.707-5.281-4.518-.951-11.075-3.327-13.279-5.862s-.882-26.035-.882-26.035a77.324,77.324,0,0,0,6.281-11.46c2.2-5.334,4.628-20.015,4.628-20.015s4.518,0,6.116-7.6c1.708-8.291,4.408-11.512,4.077-17.691-.331-6.073-3.8-5.915-3.8-5.915s3.361-8.819,3.747-27.091c.5-21.7-17.246-43.092-49.37-43.092-32.564,0-49.921,21.388-49.425,43.092.441,18.272,3.692,27.091,3.692,27.091s-3.471-.158-3.8,5.915c-.331,6.179,2.369,9.4,4.077,17.691,1.543,7.6,6.116,7.6,6.116,7.6s2.424,14.681,4.628,20.015a77.323,77.323,0,0,0,6.281,11.46s1.322,23.5-.882,26.035-8.761,4.911-13.279,5.862c-7.879,1.69-20.112,2.376-28.707,5.281-7.824,2.64-30.471,10.826-34.438,27.619a4.274,4.274,0,0,0,4.353,5.123H271.182A4.263,4.263,0,0,0,275.48,261.665Z" transform="translate(469.99 241.345)" fill="#4ee5f6"/>
    <g id="iconfinder_283_bank_payments_banking_financial_money_3957640" transform="translate(1000.149 214.006)">
      <g id="Group_1" data-name="Group 1">
        <path id="Path_5" data-name="Path 5" d="M313.021,314.778H70.087v11.129H313.021Zm-189.082-4.452V233.037H89.619v77.288h34.32Zm85.661,0V233.037H175.28v77.288H209.6Zm85.661-73.253v-4.036h-34.32v77.288h34.32v-5.737h-5.575l-.111-.018h-.24l-.111-.017h-.019l-.11-.019h-.111l-.111-.017h-.017l-.111-.019h0l-.111-.017h0l-.111-.018h-.017l-.111-.018h0l-.111-.019h0l-.111-.017h0l-.111-.036h0l-.111-.018h-.017l-.093-.018h-.018l-.092-.036h-.018l-.111-.018h0l-.093-.036h-.019l-.11-.036h0l-.111-.036h0l-.093-.036h-.017l-.092-.036h0l-.111-.036h0l-.111-.036h0l-.111-.036h0l-.092-.036h-.018l-.092-.054h0l-.111-.036h0l-.111-.036h0l-.092-.054h0l-.111-.037-.092-.053H286l-.092-.053h0l-.093-.054-.111-.037h0l-.093-.053h0l-.111-.055h0l-.092-.054h0l-.092-.053h0l-.092-.073H285.2l-.092-.054h0l-.093-.054-.092-.054-.092-.072-.092-.054-.092-.073-.093-.054-.092-.073-.093-.053-.074-.073-.092-.073-.093-.073-.092-.073-.074-.072h0l-.092-.073-.074-.072-.092-.073-.075-.074-.092-.073-.075-.072a9.142,9.142,0,0,1-2.751-6.478v-49.2h0v-.108h0l.019-.126h0v-.108h0v-.127h0v-.108h0l.017-.126h0v-.108h0l.019-.108h0l.018-.126h0l.018-.108h0v-.108l.017-.126h0l.017-.108h0l.019-.108h0l.037-.108h0l.018-.108v-.017l.018-.108h0l.036-.108h0l.018-.108h0l.018-.108h0l.038-.108.037-.108h0l.037-.108h0l.017-.108h0l.037-.108h0l.037-.108.037-.108h0l.036-.091v-.017l.055-.09h0l.038-.108.037-.108.036-.09.055-.108.038-.108h0l.054-.09.055-.108.038-.09.054-.108.056-.091.056-.108h0l.054-.091h0l.055-.09.056-.108h0l.055-.09.055-.091h0l.055-.09h.017l.056-.091.055-.091h0l.074-.09h0l.055-.091h0l.073-.091.056-.09.074-.091h0l.074-.09.075-.09.129-.163h0l.148-.163h0l.073-.09h0l.075-.073h0l.092-.091h0l.075-.073h0l.073-.072h0l.075-.073h0l.092-.091h0l.075-.073.092-.072.074-.073.092-.073h0l.074-.073h0l.092-.073h0l.093-.072h0l.092-.054h0l.073-.073h0a9.325,9.325,0,0,1,2.7-1.412h0l.2-.072h.019l.092-.036h.018l.2-.055h.018l.111-.036.092-.017h.018l.093-.036h.017l.111-.018h0l.111-.018h0l.111-.036h0l.111-.018h.017l.093-.018h.017l.111-.019h0l.111-.017h0l.111-.017h.128l.111-.019h0l.11-.018h.13l.111-.018h.239l.111-.017h5.465ZM50.5,341.488H332.609V330.359H50.5Zm119.612-120.2v7.292h44.657v-7.292Zm85.661,0v7.292h44.64v-7.292Zm.628,11.744h-2.9a2.247,2.247,0,0,1-2.271-2.227v-9.519H219.312v9.519a2.26,2.26,0,0,1-2.271,2.227h-2.9v77.288H256.4V233.037ZM84.468,221.293v7.292h44.64v-7.292Zm49.181,0v9.519a2.247,2.247,0,0,1-2.27,2.227h-2.9v77.288h42.257V233.037h-2.9a2.259,2.259,0,0,1-2.271-2.227v-9.519h-31.92Zm67.07-73.363a13.182,13.182,0,0,0-18.333,0,12.538,12.538,0,0,0,0,17.988,13.133,13.133,0,0,0,18.333,0,12.536,12.536,0,0,0,0-17.988ZM374.645,258.516v-5.954H285.236v5.954ZM88.2,153.015v-8a10.791,10.791,0,0,1-5.575-3.221,8.063,8.063,0,0,1-1.771-5.267,7.382,7.382,0,0,1,2.012-5.247A8.124,8.124,0,0,1,88.2,128.82v-1.882h2.843v1.882A8.49,8.49,0,0,1,95.99,130.9a7.807,7.807,0,0,1,2.344,4.578l-4.947.615a3.874,3.874,0,0,0-2.345-3.04v7.455c3.12.815,5.262,1.882,6.388,3.2a7.45,7.45,0,0,1,1.717,5.066A8.436,8.436,0,0,1,97,154.607a9.7,9.7,0,0,1-5.963,2.932V161.1H88.2v-3.528a9.045,9.045,0,0,1-5.446-2.426,9.966,9.966,0,0,1-2.694-5.79l5.077-.579A6.117,6.117,0,0,0,86.3,151.4,5.4,5.4,0,0,0,88.2,153.015Zm20.824-28.031a27.874,27.874,0,0,0-38.844-.018,26.58,26.58,0,0,0,0,38.11,27.849,27.849,0,0,0,38.844,0,26.559,26.559,0,0,0,0-38.093ZM374.645,262.968H285.236v32.465a4.684,4.684,0,0,0,1.423,3.329l.036.036.037.036.056.036.037.037.036.036.056.054.037.036.037.036.055.017.037.036.056.037.036.036.056.037.037.036.055.036h0l.037.036.056.018.055.036.037.037h0l.056.018.055.036h0l.036.036.055.018.055.036.055.019.037.017h.019l.037.036.055.018h0l.055.036.055.019.055.018h0l.056.036.054.019.038.017h.017l.038.019h.018l.037.018h.017l.037.017h0l.056.018h.017l.036.019h.018l.037.017h.019l.055.018h0l.055.018h0l.055.018h0l.056.018h0l.055.017h0l.055.019h.054l.056.018h.019l.055.018h.054l.056.017h.056l.054.019h.129l.055.017h.128l.055.019h80.086a4.832,4.832,0,0,0,3.4-1.376,4.694,4.694,0,0,0,1.422-3.329V262.968Zm-77.059-21.444h-7.791l-.055.018h-.184l-.055.018h-.055l-.075.018h-.054l-.056.017h-.056l-.054.019h-.075l-.056.018-.054.017-.055.018h-.055l-.056.019h0l-.055.017h0l-.055.019h-.018l-.056.017h0l-.055.019h0l-.054.017h0l-.056.019-.111.036h0l-.055.018h0a4.568,4.568,0,0,0-1.624,1.068,4.992,4.992,0,0,0-.775.976h0l-.129.254h-.019l-.018.053h0l-.037.108h-.018l-.019.036h0l-.017.053-.019.055h0l-.036.053h0l-.019.054h0l-.017.054h0l-.019.054-.018.054-.018.053-.018.055-.017.053-.019.054-.018.054v.072l-.018.054h0l-.018.054-.018.054v.055l-.019.053-.017.053v.073l-.017.055v.108h0l-.018.072v.054h0l-.018.054v.054h0v.127h0l-.019.054h0v.072h0v.054h0v.054h0V248.1h89.409v-1.882a4.652,4.652,0,0,0-1.422-3.311,4.85,4.85,0,0,0-3.4-1.394H297.586ZM260.941,110v-8a10.664,10.664,0,0,1-5.575-3.221,8.048,8.048,0,0,1-1.771-5.247,7.4,7.4,0,0,1,2.012-5.266,8.064,8.064,0,0,1,5.335-2.443V83.941h2.843v1.883a8.486,8.486,0,0,1,4.948,2.062,7.982,7.982,0,0,1,2.345,4.578l-4.948.634a3.928,3.928,0,0,0-2.345-3.059V97.5c3.12.833,5.262,1.9,6.389,3.2a7.451,7.451,0,0,1,1.717,5.068,8.3,8.3,0,0,1-2.161,5.826,9.71,9.71,0,0,1-5.945,2.95v3.565h-2.843v-3.529a9.152,9.152,0,0,1-5.464-2.443,9.9,9.9,0,0,1-2.677-5.773l5.077-.6a6.185,6.185,0,0,0,1.163,2.642A5.347,5.347,0,0,0,260.941,110Zm20.824-28.031a27.87,27.87,0,0,0-38.86,0,26.557,26.557,0,0,0,0,38.093,27.872,27.872,0,0,0,38.86,0,26.559,26.559,0,0,0,0-38.093Zm-90.221,57.8a17.6,17.6,0,0,1,12.388,5.03,16.886,16.886,0,0,1,0,24.249,17.768,17.768,0,0,1-24.757.018,16.91,16.91,0,0,1,0-24.267A17.625,17.625,0,0,1,191.544,139.768Zm-147.3,45.91H338.812L191.065,119.3l-70.043,31.668a31.378,31.378,0,0,1-8.658,15.364,32.665,32.665,0,0,1-37.772,5.628Zm46.8-32.356a4.269,4.269,0,0,0,2.382-1.376,3.614,3.614,0,0,0,.923-2.5,3.32,3.32,0,0,0-.775-2.189,5.126,5.126,0,0,0-2.529-1.429v7.492ZM88.2,132.964a3.7,3.7,0,0,0-1.809,1.32,3.385,3.385,0,0,0-.665,2.027,3.231,3.231,0,0,0,.609,1.882,4.426,4.426,0,0,0,1.864,1.393Zm175.586-22.657a4.207,4.207,0,0,0,2.383-1.357,3.621,3.621,0,0,0,.922-2.5,3.34,3.34,0,0,0-.775-2.209,4.981,4.981,0,0,0-2.53-1.412v7.474Zm-2.842-20.341a3.7,3.7,0,0,0-1.809,1.322,3.368,3.368,0,0,0-.665,2.008,3.229,3.229,0,0,0,.609,1.882,4.157,4.157,0,0,0,1.865,1.393ZM324.393,190.13H58.715v26.71H324.393V202.364H184.383a2.226,2.226,0,1,1,0-4.452H324.393V190.13Zm-34.5,92.4a2.226,2.226,0,1,1,0-4.451h17.04a2.226,2.226,0,1,1,0,4.451Zm0,9.773a2.226,2.226,0,1,1,0-4.452h37.145a2.226,2.226,0,1,1,0,4.452ZM44.739,356.019a2.218,2.218,0,1,1,0-4.434h210.94a2.217,2.217,0,1,1,0,4.434Zm123.508,8.542a2.226,2.226,0,1,1,0-4.452H314.221a2.226,2.226,0,1,1,0,4.452Zm160.908,0a2.226,2.226,0,1,1,0-4.452h18.239a2.226,2.226,0,1,1,0,4.452Zm-300.883-.253a2.226,2.226,0,1,1,0-4.451H97.43a2.226,2.226,0,1,1,0,4.451ZM75.091,77.789a2.262,2.262,0,0,1,4.524,0v26.149a2.262,2.262,0,0,1-4.524,0Zm12.24,0a2.272,2.272,0,0,1,4.542,0v26.149a2.272,2.272,0,0,1-4.542,0Zm12.24,0a2.271,2.271,0,0,1,4.541,0v26.149a2.271,2.271,0,0,1-4.541,0Zm148.265-43a2.262,2.262,0,0,1,4.523,0V60.923a2.262,2.262,0,0,1-4.523,0Zm12.239,0a2.271,2.271,0,0,1,4.542,0V60.923a2.271,2.271,0,0,1-4.542,0Zm12.239,0a2.272,2.272,0,0,1,4.542,0V60.923a2.272,2.272,0,0,1-4.542,0ZM113.9,202.364a2.226,2.226,0,1,1,0-4.452h31.828a2.226,2.226,0,1,1,0,4.452Z" transform="translate(-26.002 -32.567)" fill="#4ee5f6" fill-rule="evenodd"/>
      </g>
    </g>
    <g id="iconfinder_circle-sync-backup-2-glyph_763443" transform="translate(805.949 350.99)">
      <g id="Artboard-1">
        <path id="circle-sync-backup-2-glyph" d="M110.708,54.9c-3.6,26.533-26.718,48.14-53.8,49.274-23.528.985-42.758-13.792-48.312-34.947l10.473-.438c5.39,15.6,20.27,26.221,38.254,25.469,21.6-.9,40.084-17.9,43.415-38.94l-7.15.3L106.6,40.221l11.773,14.356ZM8.379,44.332C14.016,20.13,35.9,1.108,61.264.046c21.708-.908,39.751,11.6,46.78,30.151l-10.963.459C90.53,17.71,76.929,9.29,60.849,9.963c-19.863.831-37.088,15.268-42.32,33.944l6.262-.262L11.773,59.039,0,44.683l8.379-.351Z" transform="translate(0 83.707) rotate(-45)" fill="#4ee5f6" fill-rule="evenodd"/>
      </g>
    </g>
  </g>
</svg>
