<svg xmlns="http://www.w3.org/2000/svg" width="195.584" height="147.347" viewBox="0 0 195.584 147.347">
  <path id="iconfinder_00-ELASTOFONT-STORE-READY_cards_2703082" d="M183.835,44.135h-18.37l-5.262-29.7A12.811,12.811,0,0,0,145.437,4.114L11.53,27.642A12.715,12.715,0,0,0,1.2,42.359l14.28,80.661a12.721,12.721,0,0,0,14.765,10.317l4.879-.858v6.1a12.732,12.732,0,0,0,12.744,12.7H183.835a12.739,12.739,0,0,0,12.751-12.7V56.831A12.738,12.738,0,0,0,183.835,44.135Zm.525,12.7V68.773H47.4l.469-12.458ZM27.514,120.911,15.542,53.286,13.656,39.631,148.167,16.54l4.886,27.6H47.867a12.732,12.732,0,0,0-12.744,12.7V119.9Zm156.322,18.182-136.486-.515V90.334H184.361v48.244A.522.522,0,0,1,183.835,139.093Z" transform="translate(-1.002 -3.927)" fill="#1d1d1b"/>
</svg>
