<svg xmlns="http://www.w3.org/2000/svg" width="150.122" height="44.338" viewBox="0 0 150.122 44.338">
  <g id="Group_7" data-name="Group 7" transform="translate(-88 -2279.662)">
    <text id="Settle_Up" data-name="Settle Up" transform="translate(88 2319)" fill="#fff" font-size="25" font-family="Tahoma-Bold, Tahoma" font-weight="700"><tspan x="0" y="0">Settle Up</tspan></text>
    <path id="_ionicons_svg_logo-euro" d="M107.83,63.786V60.4h11.238l.613-3.383H107.83v-.129c0-2.531,1.284-4.093,6.794-4.093a58.075,58.075,0,0,1,7.989.616l.82-4.578A46.937,46.937,0,0,0,114.35,48c-9.836,0-14.064,2.905-14.064,8.275v.745H96V60.4h4.286v3.383H96v3.383h4.286v1.872c0,5.37,4.226,8.275,14.062,8.275a46.863,46.863,0,0,0,9.075-.836L122.6,71.9a57.913,57.913,0,0,1-7.976.616c-5.51,0-6.792-1.321-6.792-4.446v-.9h10.012l.613-3.383Z" transform="translate(114.689 2231.662)" fill="#10e0f8"/>
  </g>
</svg>
